<?xml version="1.0" encoding="utf-8" standalone="no"?>
<!DOCTYPE svg PUBLIC "-//W3C//DTD SVG 1.1//EN"
  "http://www.w3.org/Graphics/SVG/1.1/DTD/svg11.dtd">
<svg xmlns:xlink="http://www.w3.org/1999/xlink" width="374.4pt" height="374.4pt" viewBox="0 0 374.4 374.4" xmlns="http://www.w3.org/2000/svg" version="1.1">
 <metadata>
  <rdf:RDF xmlns:dc="http://purl.org/dc/elements/1.1/" xmlns:cc="http://creativecommons.org/ns#" xmlns:rdf="http://www.w3.org/1999/02/22-rdf-syntax-ns#">
   <cc:Work>
    <dc:type rdf:resource="http://purl.org/dc/dcmitype/StillImage"/>
    <dc:date>2024-07-15T10:35:35.933563</dc:date>
    <dc:format>image/svg+xml</dc:format>
    <dc:creator>
     <cc:Agent>
      <dc:title>Matplotlib v3.9.0, https://matplotlib.org/</dc:title>
     </cc:Agent>
    </dc:creator>
   </cc:Work>
  </rdf:RDF>
 </metadata>
 <defs>
  <style type="text/css">*{stroke-linejoin: round; stroke-linecap: butt}</style>
 </defs>
 <g id="figure_1">
  <g id="patch_1">
   <path d="M 0 374.4 
L 374.4 374.4 
L 374.4 -0 
L 0 -0 
L 0 374.4 
z
" style="fill: none"/>
  </g>
  <g id="axes_1">
   <g id="patch_2">
    <path d="M 363.670588 187.2 
L 363.322364 176.11932 
L 362.279065 165.082371 
L 360.544809 154.132709 
L 358.12644 143.313549 
L 355.033503 132.667589 
L 351.278203 122.236844 
L 346.875362 112.062478 
L 341.842355 102.184646 
L 336.199046 92.64233 
L 329.967705 83.473191 
L 323.172925 74.713414 
L 315.841522 66.39757 
L 308.00243 58.558478 
L 299.686586 51.227075 
L 290.926809 44.432295 
L 281.75767 38.200954 
L 272.215354 32.557645 
L 262.337522 27.524638 
L 252.163156 23.121797 
L 241.732411 19.366497 
L 231.086451 16.27356 
L 220.267291 13.855191 
L 209.317629 12.120935 
L 198.28068 11.077636 
L 187.2 10.729412 
L 176.11932 11.077636 
L 165.082371 12.120935 
L 154.132709 13.855191 
L 143.313549 16.27356 
L 132.667589 19.366497 
L 122.236844 23.121797 
L 112.062478 27.524638 
L 102.184646 32.557645 
L 92.64233 38.200954 
L 83.473191 44.432295 
L 74.713414 51.227075 
L 66.39757 58.558478 
L 58.558478 66.39757 
L 51.227075 74.713414 
L 44.432295 83.473191 
L 38.200954 92.64233 
L 32.557645 102.184646 
L 27.524638 112.062478 
L 23.121797 122.236844 
L 19.366497 132.667589 
L 16.27356 143.313549 
L 13.855191 154.132709 
L 12.120935 165.082371 
L 11.077636 176.11932 
L 10.729412 187.2 
L 11.077636 198.28068 
L 12.120935 209.317629 
L 13.855191 220.267291 
L 16.27356 231.086451 
L 19.366497 241.732411 
L 23.121797 252.163156 
L 27.524638 262.337522 
L 32.557645 272.215354 
L 38.200954 281.75767 
L 44.432295 290.926809 
L 51.227075 299.686586 
L 58.558478 308.00243 
L 66.39757 315.841522 
L 74.713414 323.172925 
L 83.473191 329.967705 
L 92.64233 336.199046 
L 102.184646 341.842355 
L 112.062478 346.875362 
L 122.236844 351.278203 
L 132.667589 355.033503 
L 143.313549 358.12644 
L 154.132709 360.544809 
L 165.082371 362.279065 
L 176.11932 363.322364 
L 187.2 363.670588 
L 198.28068 363.322364 
L 209.317629 362.279065 
L 220.267291 360.544809 
L 231.086451 358.12644 
L 241.732411 355.033503 
L 252.163156 351.278203 
L 262.337522 346.875362 
L 272.215354 341.842355 
L 281.75767 336.199046 
L 290.926809 329.967705 
L 299.686586 323.172925 
L 308.00243 315.841522 
L 315.841522 308.00243 
L 323.172925 299.686586 
L 329.967705 290.926809 
L 336.199046 281.75767 
L 341.842355 272.215354 
L 346.875362 262.337522 
L 351.278203 252.163156 
L 355.033503 241.732411 
L 358.12644 231.086451 
L 360.544809 220.267291 
L 362.279065 209.317629 
L 363.322364 198.28068 
z
" clip-path="url(#pc3d1b4c680)" style="fill: #e6e6e6"/>
   </g>
   <g id="patch_3">
    <path d="M 10.729412 363.670588 
L 10.729412 187.2 
L 11.077636 198.28068 
L 12.120935 209.317629 
L 13.855191 220.267291 
L 16.27356 231.086451 
L 19.366497 241.732411 
L 23.121797 252.163156 
L 27.524638 262.337522 
L 32.557645 272.215354 
L 38.200954 281.75767 
L 44.432295 290.926809 
L 51.227075 299.686586 
L 58.558478 308.00243 
L 66.39757 315.841522 
L 74.713414 323.172925 
L 83.473191 329.967705 
L 92.64233 336.199046 
L 102.184646 341.842355 
L 112.062478 346.875362 
L 122.236844 351.278203 
L 132.667589 355.033503 
L 143.313549 358.12644 
L 154.132709 360.544809 
L 165.082371 362.279065 
L 176.11932 363.322364 
L 187.2 363.670588 
z
" clip-path="url(#pc3d1b4c680)" style="fill: #ffffff; stroke: #ffffff; stroke-linejoin: miter"/>
   </g>
   <g id="patch_4">
    <path d="M 363.670588 363.670588 
L 187.2 363.670588 
L 198.28068 363.322364 
L 209.317629 362.279065 
L 220.267291 360.544809 
L 231.086451 358.12644 
L 241.732411 355.033503 
L 252.163156 351.278203 
L 262.337522 346.875362 
L 272.215354 341.842355 
L 281.75767 336.199046 
L 290.926809 329.967705 
L 299.686586 323.172925 
L 308.00243 315.841522 
L 315.841522 308.00243 
L 323.172925 299.686586 
L 329.967705 290.926809 
L 336.199046 281.75767 
L 341.842355 272.215354 
L 346.875362 262.337522 
L 351.278203 252.163156 
L 355.033503 241.732411 
L 358.12644 231.086451 
L 360.544809 220.267291 
L 362.279065 209.317629 
L 363.322364 198.28068 
L 363.670588 187.2 
z
" clip-path="url(#pc3d1b4c680)" style="fill: #ffffff; stroke: #ffffff; stroke-linejoin: miter"/>
   </g>
   <g id="patch_5">
    <path d="M 363.670588 10.729412 
L 363.670588 187.2 
L 363.322364 176.11932 
L 362.279065 165.082371 
L 360.544809 154.132709 
L 358.12644 143.313549 
L 355.033503 132.667589 
L 351.278203 122.236844 
L 346.875362 112.062478 
L 341.842355 102.184646 
L 336.199046 92.64233 
L 329.967705 83.473191 
L 323.172925 74.713414 
L 315.841522 66.39757 
L 308.00243 58.558478 
L 299.686586 51.227075 
L 290.926809 44.432295 
L 281.75767 38.200954 
L 272.215354 32.557645 
L 262.337522 27.524638 
L 252.163156 23.121797 
L 241.732411 19.366497 
L 231.086451 16.27356 
L 220.267291 13.855191 
L 209.317629 12.120935 
L 198.28068 11.077636 
L 187.2 10.729412 
z
" clip-path="url(#pc3d1b4c680)" style="fill: #ffffff; stroke: #ffffff; stroke-linejoin: miter"/>
   </g>
   <g id="patch_6">
    <path d="M 10.729412 10.729412 
L 187.2 10.729412 
L 176.11932 11.077636 
L 165.082371 12.120935 
L 154.132709 13.855191 
L 143.313549 16.27356 
L 132.667589 19.366497 
L 122.236844 23.121797 
L 112.062478 27.524638 
L 102.184646 32.557645 
L 92.64233 38.200954 
L 83.473191 44.432295 
L 74.713414 51.227075 
L 66.39757 58.558478 
L 58.558478 66.39757 
L 51.227075 74.713414 
L 44.432295 83.473191 
L 38.200954 92.64233 
L 32.557645 102.184646 
L 27.524638 112.062478 
L 23.121797 122.236844 
L 19.366497 132.667589 
L 16.27356 143.313549 
L 13.855191 154.132709 
L 12.120935 165.082371 
L 11.077636 176.11932 
L 10.729412 187.2 
z
" clip-path="url(#pc3d1b4c680)" style="fill: #ffffff; stroke: #ffffff; stroke-linejoin: miter"/>
   </g>
   <g id="line2d_1">
    <path d="M 363.322364 176.11932 
L 363.670588 187.2 
" clip-path="url(#pc3d1b4c680)" style="fill: none; stroke: #808080; stroke-width: 4; stroke-linecap: round"/>
   </g>
   <g id="line2d_2">
    <path d="M 362.279065 165.082371 
L 363.322364 176.11932 
" clip-path="url(#pc3d1b4c680)" style="fill: none; stroke: #808080; stroke-width: 4; stroke-linecap: round"/>
   </g>
   <g id="line2d_3">
    <path d="M 360.544809 154.132709 
L 362.279065 165.082371 
" clip-path="url(#pc3d1b4c680)" style="fill: none; stroke: #808080; stroke-width: 4; stroke-linecap: round"/>
   </g>
   <g id="line2d_4">
    <path d="M 358.12644 143.313549 
L 360.544809 154.132709 
" clip-path="url(#pc3d1b4c680)" style="fill: none; stroke: #808080; stroke-width: 4; stroke-linecap: round"/>
   </g>
   <g id="line2d_5">
    <path d="M 355.033503 132.667589 
L 358.12644 143.313549 
" clip-path="url(#pc3d1b4c680)" style="fill: none; stroke: #808080; stroke-width: 4; stroke-linecap: round"/>
   </g>
   <g id="line2d_6">
    <path d="M 351.278203 122.236844 
L 355.033503 132.667589 
" clip-path="url(#pc3d1b4c680)" style="fill: none; stroke: #808080; stroke-width: 4; stroke-linecap: round"/>
   </g>
   <g id="line2d_7">
    <path d="M 346.875362 112.062478 
L 351.278203 122.236844 
" clip-path="url(#pc3d1b4c680)" style="fill: none; stroke: #808080; stroke-width: 4; stroke-linecap: round"/>
   </g>
   <g id="line2d_8">
    <path d="M 341.842355 102.184646 
L 346.875362 112.062478 
" clip-path="url(#pc3d1b4c680)" style="fill: none; stroke: #808080; stroke-width: 4; stroke-linecap: round"/>
   </g>
   <g id="line2d_9">
    <path d="M 336.199046 92.64233 
L 341.842355 102.184646 
" clip-path="url(#pc3d1b4c680)" style="fill: none; stroke: #808080; stroke-width: 4; stroke-linecap: round"/>
   </g>
   <g id="line2d_10">
    <path d="M 329.967705 83.473191 
L 336.199046 92.64233 
" clip-path="url(#pc3d1b4c680)" style="fill: none; stroke: #808080; stroke-width: 4; stroke-linecap: round"/>
   </g>
   <g id="line2d_11">
    <path d="M 323.172925 74.713414 
L 329.967705 83.473191 
" clip-path="url(#pc3d1b4c680)" style="fill: none; stroke: #808080; stroke-width: 4; stroke-linecap: round"/>
   </g>
   <g id="line2d_12">
    <path d="M 315.841522 66.39757 
L 323.172925 74.713414 
" clip-path="url(#pc3d1b4c680)" style="fill: none; stroke: #808080; stroke-width: 4; stroke-linecap: round"/>
   </g>
   <g id="line2d_13">
    <path d="M 308.00243 58.558478 
L 315.841522 66.39757 
" clip-path="url(#pc3d1b4c680)" style="fill: none; stroke: #808080; stroke-width: 4; stroke-linecap: round"/>
   </g>
   <g id="line2d_14">
    <path d="M 299.686586 51.227075 
L 308.00243 58.558478 
" clip-path="url(#pc3d1b4c680)" style="fill: none; stroke: #808080; stroke-width: 4; stroke-linecap: round"/>
   </g>
   <g id="line2d_15">
    <path d="M 290.926809 44.432295 
L 299.686586 51.227075 
" clip-path="url(#pc3d1b4c680)" style="fill: none; stroke: #808080; stroke-width: 4; stroke-linecap: round"/>
   </g>
   <g id="line2d_16">
    <path d="M 281.75767 38.200954 
L 290.926809 44.432295 
" clip-path="url(#pc3d1b4c680)" style="fill: none; stroke: #808080; stroke-width: 4; stroke-linecap: round"/>
   </g>
   <g id="line2d_17">
    <path d="M 272.215354 32.557645 
L 281.75767 38.200954 
" clip-path="url(#pc3d1b4c680)" style="fill: none; stroke: #808080; stroke-width: 4; stroke-linecap: round"/>
   </g>
   <g id="line2d_18">
    <path d="M 262.337522 27.524638 
L 272.215354 32.557645 
" clip-path="url(#pc3d1b4c680)" style="fill: none; stroke: #808080; stroke-width: 4; stroke-linecap: round"/>
   </g>
   <g id="line2d_19">
    <path d="M 252.163156 23.121797 
L 262.337522 27.524638 
" clip-path="url(#pc3d1b4c680)" style="fill: none; stroke: #808080; stroke-width: 4; stroke-linecap: round"/>
   </g>
   <g id="line2d_20">
    <path d="M 241.732411 19.366497 
L 252.163156 23.121797 
" clip-path="url(#pc3d1b4c680)" style="fill: none; stroke: #808080; stroke-width: 4; stroke-linecap: round"/>
   </g>
   <g id="line2d_21">
    <path d="M 231.086451 16.27356 
L 241.732411 19.366497 
" clip-path="url(#pc3d1b4c680)" style="fill: none; stroke: #808080; stroke-width: 4; stroke-linecap: round"/>
   </g>
   <g id="line2d_22">
    <path d="M 220.267291 13.855191 
L 231.086451 16.27356 
" clip-path="url(#pc3d1b4c680)" style="fill: none; stroke: #808080; stroke-width: 4; stroke-linecap: round"/>
   </g>
   <g id="line2d_23">
    <path d="M 209.317629 12.120935 
L 220.267291 13.855191 
" clip-path="url(#pc3d1b4c680)" style="fill: none; stroke: #808080; stroke-width: 4; stroke-linecap: round"/>
   </g>
   <g id="line2d_24">
    <path d="M 198.28068 11.077636 
L 209.317629 12.120935 
" clip-path="url(#pc3d1b4c680)" style="fill: none; stroke: #808080; stroke-width: 4; stroke-linecap: round"/>
   </g>
   <g id="line2d_25">
    <path d="M 187.2 10.729412 
L 198.28068 11.077636 
" clip-path="url(#pc3d1b4c680)" style="fill: none; stroke: #808080; stroke-width: 4; stroke-linecap: round"/>
   </g>
   <g id="line2d_26">
    <path d="M 176.11932 11.077636 
L 187.2 10.729412 
" clip-path="url(#pc3d1b4c680)" style="fill: none; stroke: #808080; stroke-width: 4; stroke-linecap: round"/>
   </g>
   <g id="line2d_27">
    <path d="M 165.082371 12.120935 
L 176.11932 11.077636 
" clip-path="url(#pc3d1b4c680)" style="fill: none; stroke: #808080; stroke-width: 4; stroke-linecap: round"/>
   </g>
   <g id="line2d_28">
    <path d="M 154.132709 13.855191 
L 165.082371 12.120935 
" clip-path="url(#pc3d1b4c680)" style="fill: none; stroke: #808080; stroke-width: 4; stroke-linecap: round"/>
   </g>
   <g id="line2d_29">
    <path d="M 143.313549 16.27356 
L 154.132709 13.855191 
" clip-path="url(#pc3d1b4c680)" style="fill: none; stroke: #808080; stroke-width: 4; stroke-linecap: round"/>
   </g>
   <g id="line2d_30">
    <path d="M 132.667589 19.366497 
L 143.313549 16.27356 
" clip-path="url(#pc3d1b4c680)" style="fill: none; stroke: #808080; stroke-width: 4; stroke-linecap: round"/>
   </g>
   <g id="line2d_31">
    <path d="M 122.236844 23.121797 
L 132.667589 19.366497 
" clip-path="url(#pc3d1b4c680)" style="fill: none; stroke: #808080; stroke-width: 4; stroke-linecap: round"/>
   </g>
   <g id="line2d_32">
    <path d="M 112.062478 27.524638 
L 122.236844 23.121797 
" clip-path="url(#pc3d1b4c680)" style="fill: none; stroke: #808080; stroke-width: 4; stroke-linecap: round"/>
   </g>
   <g id="line2d_33">
    <path d="M 102.184646 32.557645 
L 112.062478 27.524638 
" clip-path="url(#pc3d1b4c680)" style="fill: none; stroke: #808080; stroke-width: 4; stroke-linecap: round"/>
   </g>
   <g id="line2d_34">
    <path d="M 92.64233 38.200954 
L 102.184646 32.557645 
" clip-path="url(#pc3d1b4c680)" style="fill: none; stroke: #808080; stroke-width: 4; stroke-linecap: round"/>
   </g>
   <g id="line2d_35">
    <path d="M 83.473191 44.432295 
L 92.64233 38.200954 
" clip-path="url(#pc3d1b4c680)" style="fill: none; stroke: #808080; stroke-width: 4; stroke-linecap: round"/>
   </g>
   <g id="line2d_36">
    <path d="M 74.713414 51.227075 
L 83.473191 44.432295 
" clip-path="url(#pc3d1b4c680)" style="fill: none; stroke: #808080; stroke-width: 4; stroke-linecap: round"/>
   </g>
   <g id="line2d_37">
    <path d="M 66.39757 58.558478 
L 74.713414 51.227075 
" clip-path="url(#pc3d1b4c680)" style="fill: none; stroke: #808080; stroke-width: 4; stroke-linecap: round"/>
   </g>
   <g id="line2d_38">
    <path d="M 58.558478 66.39757 
L 66.39757 58.558478 
" clip-path="url(#pc3d1b4c680)" style="fill: none; stroke: #808080; stroke-width: 4; stroke-linecap: round"/>
   </g>
   <g id="line2d_39">
    <path d="M 51.227075 74.713414 
L 58.558478 66.39757 
" clip-path="url(#pc3d1b4c680)" style="fill: none; stroke: #808080; stroke-width: 4; stroke-linecap: round"/>
   </g>
   <g id="line2d_40">
    <path d="M 44.432295 83.473191 
L 51.227075 74.713414 
" clip-path="url(#pc3d1b4c680)" style="fill: none; stroke: #808080; stroke-width: 4; stroke-linecap: round"/>
   </g>
   <g id="line2d_41">
    <path d="M 38.200954 92.64233 
L 44.432295 83.473191 
" clip-path="url(#pc3d1b4c680)" style="fill: none; stroke: #808080; stroke-width: 4; stroke-linecap: round"/>
   </g>
   <g id="line2d_42">
    <path d="M 32.557645 102.184646 
L 38.200954 92.64233 
" clip-path="url(#pc3d1b4c680)" style="fill: none; stroke: #808080; stroke-width: 4; stroke-linecap: round"/>
   </g>
   <g id="line2d_43">
    <path d="M 27.524638 112.062478 
L 32.557645 102.184646 
" clip-path="url(#pc3d1b4c680)" style="fill: none; stroke: #808080; stroke-width: 4; stroke-linecap: round"/>
   </g>
   <g id="line2d_44">
    <path d="M 23.121797 122.236844 
L 27.524638 112.062478 
" clip-path="url(#pc3d1b4c680)" style="fill: none; stroke: #808080; stroke-width: 4; stroke-linecap: round"/>
   </g>
   <g id="line2d_45">
    <path d="M 19.366497 132.667589 
L 23.121797 122.236844 
" clip-path="url(#pc3d1b4c680)" style="fill: none; stroke: #808080; stroke-width: 4; stroke-linecap: round"/>
   </g>
   <g id="line2d_46">
    <path d="M 16.27356 143.313549 
L 19.366497 132.667589 
" clip-path="url(#pc3d1b4c680)" style="fill: none; stroke: #808080; stroke-width: 4; stroke-linecap: round"/>
   </g>
   <g id="line2d_47">
    <path d="M 13.855191 154.132709 
L 16.27356 143.313549 
" clip-path="url(#pc3d1b4c680)" style="fill: none; stroke: #808080; stroke-width: 4; stroke-linecap: round"/>
   </g>
   <g id="line2d_48">
    <path d="M 12.120935 165.082371 
L 13.855191 154.132709 
" clip-path="url(#pc3d1b4c680)" style="fill: none; stroke: #808080; stroke-width: 4; stroke-linecap: round"/>
   </g>
   <g id="line2d_49">
    <path d="M 11.077636 176.11932 
L 12.120935 165.082371 
" clip-path="url(#pc3d1b4c680)" style="fill: none; stroke: #808080; stroke-width: 4; stroke-linecap: round"/>
   </g>
   <g id="line2d_50">
    <path d="M 10.729412 187.2 
L 11.077636 176.11932 
" clip-path="url(#pc3d1b4c680)" style="fill: none; stroke: #808080; stroke-width: 4; stroke-linecap: round"/>
   </g>
   <g id="line2d_51">
    <path d="M 11.077636 198.28068 
L 10.729412 187.2 
" clip-path="url(#pc3d1b4c680)" style="fill: none; stroke: #808080; stroke-width: 4; stroke-linecap: round"/>
   </g>
   <g id="line2d_52">
    <path d="M 12.120935 209.317629 
L 11.077636 198.28068 
" clip-path="url(#pc3d1b4c680)" style="fill: none; stroke: #808080; stroke-width: 4; stroke-linecap: round"/>
   </g>
   <g id="line2d_53">
    <path d="M 13.855191 220.267291 
L 12.120935 209.317629 
" clip-path="url(#pc3d1b4c680)" style="fill: none; stroke: #808080; stroke-width: 4; stroke-linecap: round"/>
   </g>
   <g id="line2d_54">
    <path d="M 16.27356 231.086451 
L 13.855191 220.267291 
" clip-path="url(#pc3d1b4c680)" style="fill: none; stroke: #808080; stroke-width: 4; stroke-linecap: round"/>
   </g>
   <g id="line2d_55">
    <path d="M 19.366497 241.732411 
L 16.27356 231.086451 
" clip-path="url(#pc3d1b4c680)" style="fill: none; stroke: #808080; stroke-width: 4; stroke-linecap: round"/>
   </g>
   <g id="line2d_56">
    <path d="M 23.121797 252.163156 
L 19.366497 241.732411 
" clip-path="url(#pc3d1b4c680)" style="fill: none; stroke: #808080; stroke-width: 4; stroke-linecap: round"/>
   </g>
   <g id="line2d_57">
    <path d="M 27.524638 262.337522 
L 23.121797 252.163156 
" clip-path="url(#pc3d1b4c680)" style="fill: none; stroke: #808080; stroke-width: 4; stroke-linecap: round"/>
   </g>
   <g id="line2d_58">
    <path d="M 32.557645 272.215354 
L 27.524638 262.337522 
" clip-path="url(#pc3d1b4c680)" style="fill: none; stroke: #808080; stroke-width: 4; stroke-linecap: round"/>
   </g>
   <g id="line2d_59">
    <path d="M 38.200954 281.75767 
L 32.557645 272.215354 
" clip-path="url(#pc3d1b4c680)" style="fill: none; stroke: #808080; stroke-width: 4; stroke-linecap: round"/>
   </g>
   <g id="line2d_60">
    <path d="M 44.432295 290.926809 
L 38.200954 281.75767 
" clip-path="url(#pc3d1b4c680)" style="fill: none; stroke: #808080; stroke-width: 4; stroke-linecap: round"/>
   </g>
   <g id="line2d_61">
    <path d="M 51.227075 299.686586 
L 44.432295 290.926809 
" clip-path="url(#pc3d1b4c680)" style="fill: none; stroke: #808080; stroke-width: 4; stroke-linecap: round"/>
   </g>
   <g id="line2d_62">
    <path d="M 58.558478 308.00243 
L 51.227075 299.686586 
" clip-path="url(#pc3d1b4c680)" style="fill: none; stroke: #808080; stroke-width: 4; stroke-linecap: round"/>
   </g>
   <g id="line2d_63">
    <path d="M 66.39757 315.841522 
L 58.558478 308.00243 
" clip-path="url(#pc3d1b4c680)" style="fill: none; stroke: #808080; stroke-width: 4; stroke-linecap: round"/>
   </g>
   <g id="line2d_64">
    <path d="M 74.713414 323.172925 
L 66.39757 315.841522 
" clip-path="url(#pc3d1b4c680)" style="fill: none; stroke: #808080; stroke-width: 4; stroke-linecap: round"/>
   </g>
   <g id="line2d_65">
    <path d="M 83.473191 329.967705 
L 74.713414 323.172925 
" clip-path="url(#pc3d1b4c680)" style="fill: none; stroke: #808080; stroke-width: 4; stroke-linecap: round"/>
   </g>
   <g id="line2d_66">
    <path d="M 92.64233 336.199046 
L 83.473191 329.967705 
" clip-path="url(#pc3d1b4c680)" style="fill: none; stroke: #808080; stroke-width: 4; stroke-linecap: round"/>
   </g>
   <g id="line2d_67">
    <path d="M 102.184646 341.842355 
L 92.64233 336.199046 
" clip-path="url(#pc3d1b4c680)" style="fill: none; stroke: #808080; stroke-width: 4; stroke-linecap: round"/>
   </g>
   <g id="line2d_68">
    <path d="M 112.062478 346.875362 
L 102.184646 341.842355 
" clip-path="url(#pc3d1b4c680)" style="fill: none; stroke: #808080; stroke-width: 4; stroke-linecap: round"/>
   </g>
   <g id="line2d_69">
    <path d="M 122.236844 351.278203 
L 112.062478 346.875362 
" clip-path="url(#pc3d1b4c680)" style="fill: none; stroke: #808080; stroke-width: 4; stroke-linecap: round"/>
   </g>
   <g id="line2d_70">
    <path d="M 132.667589 355.033503 
L 122.236844 351.278203 
" clip-path="url(#pc3d1b4c680)" style="fill: none; stroke: #808080; stroke-width: 4; stroke-linecap: round"/>
   </g>
   <g id="line2d_71">
    <path d="M 143.313549 358.12644 
L 132.667589 355.033503 
" clip-path="url(#pc3d1b4c680)" style="fill: none; stroke: #808080; stroke-width: 4; stroke-linecap: round"/>
   </g>
   <g id="line2d_72">
    <path d="M 154.132709 360.544809 
L 143.313549 358.12644 
" clip-path="url(#pc3d1b4c680)" style="fill: none; stroke: #808080; stroke-width: 4; stroke-linecap: round"/>
   </g>
   <g id="line2d_73">
    <path d="M 165.082371 362.279065 
L 154.132709 360.544809 
" clip-path="url(#pc3d1b4c680)" style="fill: none; stroke: #808080; stroke-width: 4; stroke-linecap: round"/>
   </g>
   <g id="line2d_74">
    <path d="M 176.11932 363.322364 
L 165.082371 362.279065 
" clip-path="url(#pc3d1b4c680)" style="fill: none; stroke: #808080; stroke-width: 4; stroke-linecap: round"/>
   </g>
   <g id="line2d_75">
    <path d="M 187.2 363.670588 
L 176.11932 363.322364 
" clip-path="url(#pc3d1b4c680)" style="fill: none; stroke: #808080; stroke-width: 4; stroke-linecap: round"/>
   </g>
   <g id="line2d_76">
    <path d="M 198.28068 363.322364 
L 187.2 363.670588 
" clip-path="url(#pc3d1b4c680)" style="fill: none; stroke: #808080; stroke-width: 4; stroke-linecap: round"/>
   </g>
   <g id="line2d_77">
    <path d="M 209.317629 362.279065 
L 198.28068 363.322364 
" clip-path="url(#pc3d1b4c680)" style="fill: none; stroke: #808080; stroke-width: 4; stroke-linecap: round"/>
   </g>
   <g id="line2d_78">
    <path d="M 220.267291 360.544809 
L 209.317629 362.279065 
" clip-path="url(#pc3d1b4c680)" style="fill: none; stroke: #808080; stroke-width: 4; stroke-linecap: round"/>
   </g>
   <g id="line2d_79">
    <path d="M 231.086451 358.12644 
L 220.267291 360.544809 
" clip-path="url(#pc3d1b4c680)" style="fill: none; stroke: #808080; stroke-width: 4; stroke-linecap: round"/>
   </g>
   <g id="line2d_80">
    <path d="M 241.732411 355.033503 
L 231.086451 358.12644 
" clip-path="url(#pc3d1b4c680)" style="fill: none; stroke: #808080; stroke-width: 4; stroke-linecap: round"/>
   </g>
   <g id="line2d_81">
    <path d="M 252.163156 351.278203 
L 241.732411 355.033503 
" clip-path="url(#pc3d1b4c680)" style="fill: none; stroke: #808080; stroke-width: 4; stroke-linecap: round"/>
   </g>
   <g id="line2d_82">
    <path d="M 262.337522 346.875362 
L 252.163156 351.278203 
" clip-path="url(#pc3d1b4c680)" style="fill: none; stroke: #808080; stroke-width: 4; stroke-linecap: round"/>
   </g>
   <g id="line2d_83">
    <path d="M 272.215354 341.842355 
L 262.337522 346.875362 
" clip-path="url(#pc3d1b4c680)" style="fill: none; stroke: #808080; stroke-width: 4; stroke-linecap: round"/>
   </g>
   <g id="line2d_84">
    <path d="M 281.75767 336.199046 
L 272.215354 341.842355 
" clip-path="url(#pc3d1b4c680)" style="fill: none; stroke: #808080; stroke-width: 4; stroke-linecap: round"/>
   </g>
   <g id="line2d_85">
    <path d="M 290.926809 329.967705 
L 281.75767 336.199046 
" clip-path="url(#pc3d1b4c680)" style="fill: none; stroke: #808080; stroke-width: 4; stroke-linecap: round"/>
   </g>
   <g id="line2d_86">
    <path d="M 299.686586 323.172925 
L 290.926809 329.967705 
" clip-path="url(#pc3d1b4c680)" style="fill: none; stroke: #808080; stroke-width: 4; stroke-linecap: round"/>
   </g>
   <g id="line2d_87">
    <path d="M 308.00243 315.841522 
L 299.686586 323.172925 
" clip-path="url(#pc3d1b4c680)" style="fill: none; stroke: #808080; stroke-width: 4; stroke-linecap: round"/>
   </g>
   <g id="line2d_88">
    <path d="M 315.841522 308.00243 
L 308.00243 315.841522 
" clip-path="url(#pc3d1b4c680)" style="fill: none; stroke: #808080; stroke-width: 4; stroke-linecap: round"/>
   </g>
   <g id="line2d_89">
    <path d="M 323.172925 299.686586 
L 315.841522 308.00243 
" clip-path="url(#pc3d1b4c680)" style="fill: none; stroke: #808080; stroke-width: 4; stroke-linecap: round"/>
   </g>
   <g id="line2d_90">
    <path d="M 329.967705 290.926809 
L 323.172925 299.686586 
" clip-path="url(#pc3d1b4c680)" style="fill: none; stroke: #808080; stroke-width: 4; stroke-linecap: round"/>
   </g>
   <g id="line2d_91">
    <path d="M 336.199046 281.75767 
L 329.967705 290.926809 
" clip-path="url(#pc3d1b4c680)" style="fill: none; stroke: #808080; stroke-width: 4; stroke-linecap: round"/>
   </g>
   <g id="line2d_92">
    <path d="M 341.842355 272.215354 
L 336.199046 281.75767 
" clip-path="url(#pc3d1b4c680)" style="fill: none; stroke: #808080; stroke-width: 4; stroke-linecap: round"/>
   </g>
   <g id="line2d_93">
    <path d="M 346.875362 262.337522 
L 341.842355 272.215354 
" clip-path="url(#pc3d1b4c680)" style="fill: none; stroke: #808080; stroke-width: 4; stroke-linecap: round"/>
   </g>
   <g id="line2d_94">
    <path d="M 351.278203 252.163156 
L 346.875362 262.337522 
" clip-path="url(#pc3d1b4c680)" style="fill: none; stroke: #808080; stroke-width: 4; stroke-linecap: round"/>
   </g>
   <g id="line2d_95">
    <path d="M 355.033503 241.732411 
L 351.278203 252.163156 
" clip-path="url(#pc3d1b4c680)" style="fill: none; stroke: #808080; stroke-width: 4; stroke-linecap: round"/>
   </g>
   <g id="line2d_96">
    <path d="M 358.12644 231.086451 
L 355.033503 241.732411 
" clip-path="url(#pc3d1b4c680)" style="fill: none; stroke: #808080; stroke-width: 4; stroke-linecap: round"/>
   </g>
   <g id="line2d_97">
    <path d="M 360.544809 220.267291 
L 358.12644 231.086451 
" clip-path="url(#pc3d1b4c680)" style="fill: none; stroke: #808080; stroke-width: 4; stroke-linecap: round"/>
   </g>
   <g id="line2d_98">
    <path d="M 362.279065 209.317629 
L 360.544809 220.267291 
" clip-path="url(#pc3d1b4c680)" style="fill: none; stroke: #808080; stroke-width: 4; stroke-linecap: round"/>
   </g>
   <g id="line2d_99">
    <path d="M 363.322364 198.28068 
L 362.279065 209.317629 
" clip-path="url(#pc3d1b4c680)" style="fill: none; stroke: #808080; stroke-width: 4; stroke-linecap: round"/>
   </g>
   <g id="line2d_100">
    <path d="M 363.670588 187.2 
L 363.322364 198.28068 
" clip-path="url(#pc3d1b4c680)" style="fill: none; stroke: #808080; stroke-width: 4; stroke-linecap: round"/>
   </g>
  </g>
 </g>
 <defs>
  <clipPath id="pc3d1b4c680">
   <rect x="7.2" y="7.2" width="360" height="360"/>
  </clipPath>
 </defs>
</svg>
